<?xml version="1.0" standalone="no"?>
<!DOCTYPE svg PUBLIC "-//W3C//DTD SVG 20010904//EN"
 "http://www.w3.org/TR/2001/REC-SVG-20010904/DTD/svg10.dtd">
<svg version="1.0" xmlns="http://www.w3.org/2000/svg"
 width="800.000000pt" height="800.000000pt" viewBox="0 0 800.000000 800.000000"
 preserveAspectRatio="xMidYMid meet">
<metadata>
Created by potrace 1.14, written by Peter Selinger 2001-2017
</metadata>
<g transform="translate(0.000000,800.000000) scale(0.100000,-0.100000)"
fill="#000000" stroke="none">
<path d="M0 6749 l0 -1250 38 5 c32 5 35 4 20 -8 -17 -12 -17 -14 2 -31 18
-16 25 -14 21 8 -2 16 30 6 41 -13 13 -21 38 -27 38 -10 0 6 7 10 15 10 8 0
15 -4 15 -9 0 -5 11 -12 25 -15 14 -4 25 -12 25 -18 0 -7 12 -22 27 -34 37
-30 26 -37 -38 -25 -43 8 -57 7 -69 -5 -24 -23 0 -34 97 -45 63 -7 98 -7 118
1 30 11 57 -1 34 -15 -24 -15 -155 -18 -195 -4 -22 7 -42 12 -46 11 -15 -4
-59 18 -54 27 3 5 -1 11 -9 15 -24 9 -19 39 5 33 11 -3 20 -1 20 4 0 5 -8 9
-17 10 -10 0 -27 3 -38 6 -39 10 -68 8 -72 -4 -3 -7 3 -13 12 -13 13 0 15 -3
6 -13 -8 -10 -7 -17 2 -26 9 -9 9 -14 0 -19 -13 -8 -16 -102 -3 -102 5 0 11 6
13 13 4 9 6 9 6 -1 1 -8 9 -10 27 -6 16 4 29 2 34 -6 6 -10 12 -10 31 0 17 10
24 10 27 1 2 -6 10 -11 17 -11 8 0 17 -9 20 -21 7 -20 30 -22 30 -1 0 5 3 14
8 18 19 19 4 -45 -15 -66 -18 -20 -19 -23 -4 -17 10 4 22 7 27 7 5 0 9 7 9 15
0 10 10 15 30 15 28 0 36 11 31 43 0 4 9 7 21 7 21 -1 21 -2 5 -11 -11 -7 -16
-17 -12 -29 4 -11 -1 -20 -12 -24 -15 -6 -15 -9 -3 -17 12 -9 11 -10 -6 -6
-11 2 -29 -2 -40 -11 -14 -11 -15 -13 -3 -9 9 3 22 0 28 -6 9 -9 14 -9 19 0 5
8 13 9 22 3 22 -14 60 -12 60 3 0 9 2 9 8 0 5 -8 102 -14 344 -19 l337 -7 -1
42 c0 29 6 49 20 64 27 29 34 93 9 91 -9 -1 -17 4 -17 12 0 9 -11 14 -29 14
-18 0 -31 6 -35 17 -10 25 7 34 42 22 18 -6 40 -8 49 -5 13 5 14 4 3 -9 -11
-13 -10 -14 2 -10 25 10 40 -21 36 -70 -3 -40 -1 -46 19 -51 12 -3 26 -3 31 0
10 6 44 -27 60 -59 12 -25 0 -60 -28 -77 -20 -13 -20 -20 -20 -456 0 -408 -1
-443 -17 -440 -9 2 -23 23 -33 52 -19 58 -68 103 -126 116 -42 10 -111 3 -120
-11 -14 -23 -33 -5 -44 41 -17 70 -79 122 -154 128 -36 3 -62 -1 -84 -12 -43
-22 -52 -20 -52 12 0 43 -26 72 -64 72 -46 0 -60 -20 -54 -80 4 -44 3 -50 -16
-56 -12 -4 -32 -15 -45 -25 -13 -10 -28 -16 -33 -13 -5 3 -15 -1 -21 -10 -24
-33 -68 -35 -129 -4 -61 30 -93 34 -148 18 -22 -6 -38 -6 -44 0 -36 36 -36 78
-36 -2190 l0 -2200 2464 0 2465 0 40 69 c23 38 45 81 51 96 12 33 143 209 180
245 15 14 31 32 36 41 20 35 216 194 314 255 84 52 203 109 260 124 30 8 51
27 108 98 64 81 94 110 202 201 22 18 40 38 40 45 0 6 28 38 63 71 75 72 207
145 261 145 20 0 36 4 36 9 0 11 91 21 108 12 21 -12 -4 -25 -93 -49 -83 -21
-180 -60 -172 -68 3 -3 31 2 62 11 114 33 416 11 452 -33 8 -10 22 -13 42 -9
17 4 33 2 36 -3 3 -6 14 -10 24 -10 9 0 27 -11 39 -25 12 -14 28 -26 34 -26
28 -3 34 -5 68 -23 19 -11 71 -54 115 -98 75 -74 103 -94 92 -65 -56 148 -83
341 -80 577 3 219 24 255 293 506 197 183 266 263 389 454 l61 94 0 1228 0
1228 -47 -34 c-27 -18 -95 -61 -153 -95 -190 -113 -209 -126 -455 -317 -190
-148 -284 -259 -300 -357 -9 -50 -19 -39 -25 29 -6 60 -24 79 -25 25 -1 -37
-43 -91 -72 -91 -9 0 -13 -6 -10 -14 7 -18 -25 -56 -47 -56 -10 0 -16 -8 -16
-22 0 -12 -3 -19 -6 -16 -3 3 -24 -12 -46 -33 -23 -21 -45 -39 -50 -39 -5 0
-7 -4 -4 -9 7 -10 -17 -21 -45 -21 -10 0 -19 -6 -19 -14 0 -7 -17 -25 -37 -38
-29 -19 -47 -24 -74 -21 -24 3 -41 0 -52 -11 -8 -9 -26 -16 -39 -15 -31 1 -86
-14 -125 -34 -18 -10 -42 -17 -54 -17 -12 0 -38 -9 -58 -19 -58 -30 -104 -46
-128 -43 -29 4 -30 -14 -2 -21 33 -9 12 -27 -30 -27 -24 0 -47 8 -61 20 -25
22 -31 23 -106 24 -37 1 -50 -2 -47 -11 3 -7 1 -13 -5 -13 -6 0 -12 5 -14 12
-3 7 -46 14 -118 19 -67 4 -116 12 -118 18 -2 6 -15 11 -28 11 -13 0 -24 4
-24 9 0 5 -39 7 -87 5 -198 -7 -249 -6 -284 10 -18 8 -47 17 -62 21 -24 5 -27
8 -17 20 8 10 31 15 66 15 69 0 206 20 219 32 6 5 -1 18 -20 33 -33 27 -51 31
-57 14 -5 -14 -59 2 -119 32 -21 11 -44 17 -52 13 -8 -3 -17 2 -20 10 -4 9
-18 16 -32 16 -30 0 -86 27 -98 46 -4 7 -33 18 -65 25 -31 7 -62 16 -69 22 -7
5 -17 6 -22 2 -6 -3 -13 5 -16 18 -5 18 -18 27 -53 38 -35 10 -47 19 -47 34 0
17 13 21 100 36 346 58 535 256 599 628 18 108 21 248 5 303 -26 97 -82 115
-215 70 -49 -16 -145 -42 -214 -57 -69 -14 -175 -37 -235 -50 -61 -14 -145
-29 -187 -35 -42 -6 -90 -15 -107 -20 -17 -5 -40 -7 -51 -5 -11 2 -22 -1 -25
-6 -4 -5 -11 -6 -17 -3 -5 4 -21 1 -34 -6 -18 -10 -41 -11 -101 -3 -43 6 -85
6 -94 2 -29 -14 -44 -70 -44 -159 0 -47 3 -103 8 -125 4 -22 4 -33 1 -25 -3 8
-9 24 -14 35 -20 46 -40 175 -41 255 l0 65 -10 -45 c-18 -84 10 -275 66 -444
35 -106 102 -253 137 -297 13 -18 18 -34 13 -48 -10 -31 -25 -26 -25 9 0 17
-4 30 -10 30 -5 0 -10 7 -10 16 0 16 -82 96 -131 127 -16 11 -29 23 -29 27 0
4 -7 11 -16 14 -12 5 -14 1 -9 -15 6 -19 4 -20 -25 -14 -56 12 -140 13 -175 1
-19 -7 -75 -11 -129 -9 -57 1 -96 -2 -96 -7 0 -6 -11 -10 -25 -10 -13 0 -28
-7 -33 -17 -9 -14 -12 -14 -35 9 l-26 26 -16 -24 c-20 -31 -35 -30 -72 5 -19
18 -47 32 -74 36 -41 7 -45 6 -75 -30 l-32 -38 -26 41 c-29 47 -52 62 -94 62
-39 0 -64 -31 -91 -112 -30 -91 -21 -107 64 -120 12 -2 21 -12 23 -25 3 -17
-6 -27 -37 -42 -22 -12 -46 -30 -55 -42 -19 -28 -46 -18 -46 16 0 19 -17 42
-62 85 -35 33 -67 60 -71 60 -5 0 -20 9 -34 20 -14 11 -48 23 -75 26 l-50 7 3
289 3 290 -55 3 c-230 14 -353 15 -386 4 -27 -9 -49 -9 -87 -1 -28 6 -118 13
-199 16 -82 2 -151 7 -155 10 -5 6 38 10 72 6 11 -1 15 3 12 9 -4 6 -1 11 8
11 8 0 23 3 33 6 16 6 16 5 -2 -9 -19 -16 -18 -16 25 -16 34 0 40 2 25 9 -22
10 -20 10 49 16 40 4 47 2 42 -11 -3 -9 0 -15 10 -15 8 0 12 5 9 11 -4 5 -1
18 7 27 31 39 44 80 44 132 l-1 55 -80 6 -80 5 98 2 c53 1 97 6 97 10 0 4 33
5 73 1 39 -4 79 -8 87 -9 13 0 12 -2 -1 -10 -13 -7 -15 -20 -12 -54 4 -34 1
-51 -14 -73 -21 -30 -17 -80 6 -75 7 1 73 4 146 5 86 2 138 7 148 15 8 7 21
10 30 6 9 -3 20 2 26 14 7 13 18 18 29 15 22 -5 44 -57 30 -71 -14 -14 0 -52
19 -52 11 0 13 6 8 23 -11 33 -8 121 4 125 6 2 9 8 5 13 -3 5 -2 9 3 8 24 -4
31 4 30 36 -1 31 -4 35 -27 35 -15 0 -37 -11 -50 -25 -28 -30 -50 -32 -50 -6
0 11 -3 27 -7 37 -5 13 -3 16 10 11 8 -3 17 -1 19 4 2 5 36 15 76 21 39 6 69
14 66 19 -3 5 8 9 25 9 16 0 31 -5 33 -12 3 -9 91 -14 339 -20 184 -5 351 -6
373 -3 l38 6 -6 -33 c-18 -96 -17 -108 4 -138 28 -39 72 -41 96 -5 9 13 13 33
9 44 -3 10 -2 22 4 25 16 10 0 45 -33 72 l-31 26 47 -5 c33 -3 51 0 59 9 9 11
17 8 41 -16 29 -30 31 -30 143 -30 122 0 125 1 130 60 1 14 10 44 21 67 l20
42 41 -54 c23 -30 59 -63 79 -73 27 -14 41 -30 54 -63 9 -24 22 -43 28 -42 7
2 12 0 12 -5 0 -19 183 -1 196 19 3 5 12 9 20 9 18 0 27 7 119 96 41 39 76 82
79 95 21 89 25 128 27 239 1 106 -2 133 -20 181 -44 116 -139 187 -234 174
-26 -3 -53 -8 -60 -11 -9 -3 -16 23 -25 98 -13 108 -50 266 -72 308 -18 36
-51 70 -68 70 -7 0 -26 -12 -41 -27 l-27 -28 3 60 c2 33 8 98 14 145 6 47 12
103 14 125 5 50 49 189 70 221 8 13 22 24 30 24 20 0 34 39 28 73 -4 18 -12
27 -24 27 -21 0 -23 3 -10 28 9 17 12 25 51 122 83 205 269 479 451 663 l87
87 -2469 0 -2469 0 0 -1251z m4330 -466 c11 -36 27 -117 35 -180 17 -132 23
-118 -71 -172 -28 -16 -57 -36 -65 -44 -12 -11 -14 0 -12 77 4 227 20 337 55
383 18 23 38 0 58 -64z m-1220 -223 c0 -5 -3 -10 -7 -10 -8 0 -33 -47 -33 -60
0 -3 16 -6 36 -6 20 0 39 -6 45 -14 6 -10 9 -11 9 -2 0 7 14 12 34 12 28 0 35
-4 40 -25 7 -29 26 -34 26 -6 0 11 6 22 13 25 8 3 7 8 -6 16 -24 16 -5 40 32
40 22 -1 24 -2 9 -11 -26 -14 -22 -26 11 -37 22 -8 31 -7 34 1 3 9 7 9 18 1 8
-7 46 -18 85 -26 57 -12 89 -13 165 -4 106 13 126 20 108 42 -14 17 -5 18 22
3 14 -7 17 -14 10 -22 -11 -14 7 -107 21 -107 4 0 11 -19 15 -42 l7 -43 8 64
c4 35 8 64 10 66 2 1 42 0 91 -3 71 -4 87 -7 85 -20 -2 -8 3 -17 11 -20 10 -3
12 0 8 12 -5 11 -1 16 12 16 10 0 21 -7 25 -15 8 -22 56 -20 57 3 2 26 17 -27
18 -64 1 -23 -6 -36 -29 -52 -26 -20 -41 -22 -160 -22 -109 0 -130 2 -130 15
0 20 -26 19 -34 -1 -5 -14 -17 -16 -72 -11 -56 4 -69 2 -85 -14 -10 -10 -19
-23 -19 -29 0 -9 -207 -6 -320 5 -25 2 -117 7 -205 10 l-160 6 -20 -37 -20
-37 -5 29 c-3 16 -2 34 2 39 5 6 18 25 31 42 12 18 43 61 69 96 26 35 50 77
54 93 12 51 84 140 84 104z m80 0 c0 -5 -7 -10 -15 -10 -8 0 -15 5 -15 10 0 6
7 10 15 10 8 0 15 -4 15 -10z m21 -17 c-12 -20 -14 -14 -5 12 4 9 9 14 11 11
3 -2 0 -13 -6 -23z m79 16 c0 -10 -30 -20 -41 -13 -5 3 -7 9 -5 13 6 9 46 9
46 0z m-2455 -19 c4 -6 -15 -10 -50 -10 -35 0 -54 4 -50 10 3 6 26 10 50 10
24 0 47 -4 50 -10z m2104 -102 c-2 -63 -9 -88 -25 -88 -19 0 -33 -31 -27 -62
7 -36 -33 -63 -79 -52 -18 4 -55 6 -82 5 -26 -1 -54 3 -62 9 -8 8 -19 8 -31 2
-10 -6 -39 -7 -68 -2 -27 4 -53 6 -57 3 -5 -2 -8 22 -7 54 0 42 3 52 9 38 7
-17 9 -16 10 10 2 17 2 35 1 41 -2 14 81 36 103 28 9 -3 16 -15 16 -25 0 -10
5 -19 10 -19 6 0 10 9 10 20 0 19 7 20 110 20 96 0 111 2 117 18 7 18 32 41
46 42 4 0 7 -19 6 -42z m-449 -28 c11 -7 12 -12 3 -21 -6 -6 -9 -18 -6 -25 3
-8 0 -14 -5 -14 -6 0 -14 9 -17 20 -3 11 -11 20 -16 20 -5 0 -9 5 -9 11 0 5 5
7 10 4 6 -3 10 -1 10 4 0 13 10 14 30 1z m-1495 -170 c54 -6 102 -14 105 -19
3 -4 17 -11 33 -15 41 -10 32 -26 -15 -26 -64 0 -220 29 -245 46 -13 8 -23 21
-23 29 0 11 5 12 23 5 12 -5 67 -14 122 -20z m205 -46 c0 -8 -4 -12 -10 -9 -5
3 -10 13 -10 21 0 8 5 12 10 9 6 -3 10 -13 10 -21z m2580 7 c0 -5 -11 -8 -25
-7 -33 1 -33 16 0 16 14 0 25 -4 25 -9z m140 -1 c0 -5 -22 -10 -50 -10 -27 0
-50 4 -50 8 0 5 23 10 50 11 28 1 50 -3 50 -9z m145 -10 c-3 -5 -10 -10 -16
-10 -5 0 -9 5 -9 10 0 6 7 10 16 10 8 0 12 -4 9 -10z m-835 -61 c0 -22 5 -29
19 -29 18 0 51 29 35 31 -5 0 4 5 20 9 16 5 42 6 57 3 16 -3 29 -2 29 3 0 5
29 9 65 9 36 0 60 -2 55 -3 -6 -2 -8 -7 -5 -12 6 -10 45 -1 45 11 0 5 11 9 25
9 23 0 25 -3 25 -51 l0 -51 -157 7 c-87 3 -196 8 -242 9 -52 2 -86 8 -91 16
-6 10 -12 9 -31 0 -15 -9 -24 -9 -27 -2 -1 5 -12 7 -24 4 -14 -3 -19 -1 -14 6
3 6 2 13 -4 17 -5 3 -10 1 -10 -4 0 -6 -5 -11 -11 -11 -8 0 -8 4 0 14 8 10 23
13 45 9 19 -3 36 -1 40 5 3 6 15 8 26 5 13 -3 20 0 20 9 0 7 11 15 25 16 25 2
30 -8 27 -50 -3 -32 15 -19 28 22 15 44 30 44 30 -1z m870 -20 c0 -39 -25 -69
-57 -69 -19 0 -23 5 -23 29 0 25 -3 28 -27 24 -26 -4 -26 -3 -8 8 11 7 35 25
54 40 28 23 36 25 47 14 8 -7 14 -28 14 -46z m-306 -24 c-6 -32 -9 -35 -40
-35 -39 0 -47 12 -36 55 6 20 16 31 30 33 12 2 22 9 22 15 0 6 7 2 15 -11 11
-15 14 -32 9 -57z m-94 20 c0 -35 -4 -45 -16 -45 -13 0 -15 7 -10 31 3 17 6
38 6 45 0 8 5 14 10 14 6 0 10 -20 10 -45z m180 35 c0 -6 11 -15 25 -20 14 -5
25 -14 25 -19 0 -18 -53 -51 -81 -51 -28 0 -29 2 -29 46 0 36 3 45 15 41 8 -4
17 -2 20 3 8 13 25 13 25 0z m-940 -49 c0 -15 -55 -4 -58 12 -3 14 1 15 27 6
17 -6 31 -14 31 -18z m-1685 -21 c-3 -5 -12 -10 -20 -10 -8 0 -17 5 -20 10 -4
6 5 10 20 10 15 0 24 -4 20 -10z m95 -29 c16 -4 21 -9 13 -14 -7 -4 -27 -1
-45 7 -35 15 -15 20 32 7z m2145 -10 l110 -6 3 -62 3 -63 -93 0 c-51 0 -181 5
-288 10 -228 11 -350 12 -402 4 -24 -4 -38 -2 -38 4 0 6 17 12 38 14 l37 3 3
59 3 59 257 -8 c141 -4 307 -10 367 -14z m-2012 -8 c-7 -2 -19 -2 -25 0 -7 3
-2 5 12 5 14 0 19 -2 13 -5z m2218 -10 c1 -17 2 -17 6 0 3 13 15 17 49 17 26
0 44 -5 44 -11 0 -8 5 -8 15 1 10 9 32 10 70 5 l55 -6 -20 -39 c-11 -22 -20
-51 -20 -65 0 -24 -1 -25 -67 -23 -70 1 -113 12 -124 30 -4 7 -13 7 -27 -1
-18 -10 -20 -7 -24 29 -2 22 0 49 4 60 9 25 38 26 39 3z m405 -18 c9 -37 1
-39 -25 -5 -21 29 -21 30 -1 30 13 0 22 -9 26 -25z m-3372 -3 c2 -4 -44 -6
-102 -4 -155 4 -166 9 -25 11 67 0 124 -2 127 -7z m376 -51 c28 -20 38 -60 18
-72 -20 -13 -48 -11 -48 4 0 7 -11 28 -25 47 -14 19 -25 38 -25 43 0 13 51 -1
80 -22z m200 -29 c56 -92 -16 -115 -77 -24 -18 27 -33 51 -33 54 0 3 20 5 45
4 40 -1 48 -5 65 -34z m170 17 c13 -24 6 -50 -12 -47 -19 4 -38 51 -24 60 17
12 25 9 36 -13z m385 8 c21 -2 30 -8 29 -20 -4 -75 -4 -77 -24 -77 -11 0 -27
11 -36 25 -13 20 -24 25 -60 25 -41 0 -44 -2 -45 -27 -1 -16 -1 -31 0 -35 2
-15 -46 -8 -61 10 -14 15 -31 96 -23 104 4 4 179 0 220 -5z m232 -11 c1 -1 -1
-12 -4 -25 -5 -21 -10 -22 -42 -16 -32 6 -52 9 -98 14 -7 0 -13 10 -13 22 0
20 3 20 78 14 42 -4 78 -8 79 -9z m468 4 c4 -6 -16 -10 -52 -9 -44 1 -52 3
-33 9 36 12 78 12 85 0z m-2140 -50 c-3 -5 -10 -10 -16 -10 -5 0 -9 5 -9 10 0
6 7 10 16 10 8 0 12 -4 9 -10z m153 -11 c5 -13 19 -11 37 7 10 10 22 13 33 8
9 -4 23 -6 31 -5 9 2 12 -3 7 -16 -5 -16 -5 -16 9 1 13 18 20 15 16 -6 -1 -11
17 -10 23 0 5 8 210 5 252 -3 21 -5 41 -45 22 -45 -5 0 -16 -7 -25 -15 -13
-14 -13 -21 -1 -60 14 -42 14 -44 -4 -34 -23 12 -25 75 -2 107 9 13 14 25 13
26 -2 2 -61 6 -131 9 l-128 6 0 -39 c0 -52 -17 -52 -74 0 l-43 40 -92 0 c-90
0 -103 4 -79 28 14 14 131 7 136 -9z m1895 -49 c18 0 46 -1 62 -3 17 -3 35 -1
41 4 6 5 17 0 27 -11 14 -17 14 -20 2 -20 -8 0 -22 -11 -31 -25 -16 -25 -44
-34 -44 -15 0 36 -17 50 -60 50 -39 0 -65 -20 -72 -55 -6 -33 -32 -23 -39 15
-3 19 -7 40 -9 45 -7 30 0 36 28 22 34 -18 52 -12 53 16 2 22 2 22 6 0 3 -18
11 -23 36 -23z m74 14 c-3 -3 -12 -4 -19 -1 -8 3 -5 6 6 6 11 1 17 -2 13 -5z
m700 0 c-3 -3 -12 -4 -19 -1 -8 3 -5 6 6 6 11 1 17 -2 13 -5z m-2779 -16 c-3
-7 -13 -15 -24 -17 -16 -3 -17 -1 -5 13 16 19 34 21 29 4z m4852 -38 c11 -6
24 -19 30 -30 9 -16 2 -24 -46 -59 -31 -22 -80 -49 -109 -60 -126 -47 -804
-171 -935 -171 -90 0 -149 41 -136 93 5 21 10 22 133 22 101 0 156 6 263 28
248 52 636 146 686 166 56 23 87 26 114 11z m-3713 -82 c-3 -8 -6 -5 -6 6 -1
11 2 17 5 13 3 -3 4 -12 1 -19z m-1307 -8 c0 -5 -4 -10 -10 -10 -5 0 -10 5
-10 10 0 6 5 10 10 10 6 0 10 -4 10 -10z m157 -22 c-3 -7 -5 -2 -5 12 0 14 2
19 5 13 2 -7 2 -19 0 -25z m1472 2 c126 0 142 -2 131 -15 -10 -12 -39 -15
-144 -15 -145 0 -176 5 -176 27 0 11 6 14 23 9 12 -3 87 -6 166 -6z m-1501
-46 c-14 -14 -15 -14 -10 11 3 19 8 23 15 16 8 -8 7 -16 -5 -27z m-28 22 c0
-11 -19 -15 -25 -6 -3 5 1 10 9 10 9 0 16 -2 16 -4z m1228 -27 c10 0 12 -3 5
-5 -7 -3 -10 -11 -7 -18 5 -14 -22 -30 -30 -18 -2 4 -2 21 2 37 3 17 7 24 9
18 3 -7 12 -13 21 -14z m-211 -5 c-3 -3 -12 -4 -19 -1 -8 3 -5 6 6 6 11 1 17
-2 13 -5z m161 -21 c2 -8 -5 -13 -17 -13 -12 0 -21 6 -21 16 0 18 31 15 38 -3z
m1065 -76 c3 -7 6 -122 6 -255 l2 -241 -41 23 c-88 50 -167 -6 -184 -129 -4
-27 -9 -57 -12 -67 -6 -20 -44 -32 -109 -32 -85 -1 -126 -50 -111 -131 6 -31
2 -38 -49 -90 -30 -31 -55 -64 -55 -74 0 -25 -29 -61 -50 -61 -10 0 -36 15
-58 33 -22 19 -54 40 -71 47 -17 7 -31 17 -31 23 0 13 20 87 31 112 4 11 13
39 19 62 18 71 -18 119 -106 142 -25 7 -48 22 -62 40 -12 17 -35 32 -54 36
-40 8 -100 28 -149 49 -36 15 -68 11 -121 -15 -10 -5 -26 -9 -37 -9 -11 0 -28
-15 -41 -35 -12 -19 -27 -35 -33 -35 -7 0 -6 -4 3 -10 12 -8 12 -10 1 -10 -8
0 -11 -7 -8 -20 3 -11 1 -23 -4 -26 -9 -5 -10 0 -13 41 -2 29 -16 47 -32 41
-10 -4 -14 3 -16 22 0 15 -2 38 -4 52 -4 31 -7 271 -5 364 l1 68 33 -6 c18 -3
37 -3 41 1 4 4 31 8 61 8 29 1 60 7 68 13 12 10 16 10 19 0 4 -10 10 -10 30
-1 19 8 28 9 37 0 8 -8 14 -8 23 1 16 16 125 16 131 0 4 -10 7 -10 15 0 6 9
32 13 83 12 250 -5 623 0 629 10 3 6 27 8 53 6 36 -4 47 -1 47 10 0 8 7 14 15
14 8 0 15 5 15 11 0 8 5 8 15 -1 9 -8 15 -8 15 -2 0 10 18 18 46 21 7 0 14 -5
17 -12z m-163 -27 c0 -5 -5 -10 -11 -10 -5 0 -7 5 -4 10 3 6 8 10 11 10 2 0 4
-4 4 -10z m2475 -250 c39 -6 97 -17 130 -25 60 -16 135 -59 143 -83 6 -19
-101 -120 -174 -165 -81 -49 -245 -90 -260 -65 -4 5 -17 7 -31 3 -16 -4 -22
-2 -18 5 3 5 0 10 -7 10 -18 0 -68 54 -68 74 0 19 -17 30 -25 16 -10 -16 -26
-11 -23 8 2 11 -4 18 -19 20 -15 2 -23 10 -23 23 0 12 -7 19 -20 19 -11 0 -20
7 -20 15 0 8 -4 15 -10 15 -5 0 -10 -9 -10 -20 0 -22 -1 -23 -24 -14 -9 3 -16
12 -16 20 0 8 -7 14 -15 14 -8 0 -15 6 -15 14 0 9 -8 12 -25 8 -16 -3 -25 0
-25 8 0 7 -7 10 -17 5 -15 -5 -16 -4 -5 6 9 10 15 10 24 1 7 -7 17 -12 23 -12
5 0 4 4 -4 9 -7 5 -11 13 -7 19 6 11 132 55 201 71 55 12 254 13 340 1z m-395
-190 c0 -5 -4 -10 -9 -10 -6 0 -13 5 -16 10 -3 6 1 10 9 10 9 0 16 -4 16 -10z
m-3250 -240 c0 -4 -7 -11 -16 -14 -13 -5 -14 -4 -6 7 7 8 8 18 4 22 -4 5 -1 5
6 1 6 -4 12 -11 12 -16z m600 -100 c0 -5 -4 -10 -10 -10 -5 0 -10 5 -10 10 0
6 5 10 10 10 6 0 10 -4 10 -10z m1667 -170 c35 -35 44 -39 75 -34 50 9 111
-33 127 -86 6 -21 17 -45 24 -52 7 -7 24 -32 36 -54 34 -61 61 -51 75 28 4 21
18 51 33 68 42 50 111 77 129 49 4 -7 0 -9 -14 -5 -24 8 -72 -19 -72 -40 0
-18 9 -18 31 2 30 27 60 1 74 -66 2 -8 4 -17 5 -20 1 -3 8 11 15 30 l13 35 1
-47 c1 -27 -3 -48 -9 -48 -5 0 -10 -6 -10 -14 0 -7 -7 -19 -16 -27 -8 -7 -13
-21 -11 -31 3 -11 -7 -28 -30 -49 -50 -43 -79 -55 -98 -39 -18 15 -45 6 -45
-15 0 -8 -4 -15 -10 -15 -5 0 -10 -11 -10 -25 0 -16 -6 -25 -15 -25 -8 0 -15
-9 -15 -19 0 -23 -58 -91 -77 -91 -7 0 -13 -4 -13 -8 0 -14 -45 -62 -57 -62
-6 0 -13 -5 -15 -11 -2 -5 -12 -11 -23 -13 -14 -2 -19 -9 -17 -24 4 -29 -71
-110 -112 -120 -56 -15 -92 12 -64 47 30 37 50 90 44 115 -9 36 14 34 42 -4
13 -16 29 -30 37 -30 21 0 38 36 26 58 -5 9 -7 30 -4 46 8 41 -18 83 -86 144
-55 48 -81 95 -59 108 4 3 6 9 3 14 -3 5 -2 11 3 14 4 2 9 19 10 38 3 39 11
49 54 62 42 14 34 31 -14 31 -64 0 -77 37 -18 50 44 10 37 19 -22 34 -29 8
-59 18 -65 24 -9 6 -13 6 -13 -1 0 -6 -13 -7 -36 -2 -38 9 -56 20 -33 20 8 0
54 3 104 6 86 5 114 12 87 21 -22 8 -35 43 -21 59 6 8 13 14 14 14 1 0 20 -18
42 -40z m1507 -115 c17 -22 20 -41 8 -49 -4 -2 -41 4 -81 15 -138 37 -147 56
-26 55 72 -1 87 -4 99 -21z m-1746 -141 c2 -10 17 -31 33 -46 25 -23 28 -33
24 -60 -7 -37 -16 -49 -22 -30 -6 16 -23 15 -23 -2 0 -14 -64 -76 -78 -76 -5
0 -20 -20 -36 -44 -15 -24 -43 -58 -62 -77 -29 -27 -94 -136 -94 -156 0 -2 25
22 55 54 30 32 55 67 55 77 0 19 153 177 183 189 39 15 27 -34 -21 -85 -14
-16 -21 -28 -14 -28 6 0 16 -9 22 -21 10 -18 3 -37 -44 -128 -72 -141 -89
-191 -91 -277 -1 -40 -5 -76 -8 -81 -3 -5 -5 -22 -5 -39 1 -16 -2 -40 -7 -53
-9 -30 -42 -63 -50 -51 -4 6 -15 10 -25 10 -15 0 -18 6 -14 38 2 20 10 60 17
87 11 45 11 53 -6 82 -12 21 -29 34 -50 38 -18 4 -40 17 -49 28 -9 12 -26 22
-39 22 -50 0 -50 61 1 119 17 18 37 49 45 67 16 36 72 118 99 145 9 8 16 20
16 27 0 18 42 57 62 57 10 0 18 7 18 15 0 8 5 15 11 15 5 0 7 5 4 10 -3 6 1
10 9 10 10 0 13 6 10 15 -4 8 -2 21 4 28 6 6 13 35 17 62 4 28 12 58 17 68 11
22 32 17 36 -9z m-91 -139 c3 -10 -47 -38 -54 -31 -3 2 2 14 9 25 13 21 38 25
45 6z m849 -133 c16 -15 18 -38 5 -46 -15 -10 9 -71 42 -108 16 -18 26 -27 22
-19 -5 8 -4 12 2 8 5 -3 8 -20 5 -37 -3 -21 0 -30 10 -30 22 0 61 -47 55 -64
-5 -13 -12 -12 -43 9 -20 14 -40 25 -45 25 -16 0 -22 -23 -7 -34 8 -6 26 -20
41 -32 l26 -21 -32 -61 c-18 -34 -38 -62 -45 -62 -7 0 -10 -5 -7 -11 8 -13
-36 -119 -50 -119 -8 0 -121 63 -133 75 -2 2 13 26 33 54 l37 51 -30 -6 c-60
-12 -82 23 -58 95 5 15 5 21 -2 17 -5 -3 -12 3 -15 13 -3 12 6 28 24 46 17 15
29 38 30 53 1 54 11 87 29 107 10 11 22 34 26 50 9 38 57 97 63 76 2 -8 9 -21
17 -29z m-963 22 c3 -4 -5 -16 -19 -26 -31 -25 -42 -18 -17 11 18 22 26 25 36
15z m342 -24 c3 -6 -1 -7 -9 -4 -18 7 -21 14 -7 14 6 0 13 -4 16 -10z m0 -68
c0 -18 -20 -15 -23 4 -3 10 1 15 10 12 7 -3 13 -10 13 -16z m845 -12 l21 -29
-24 -54 c-34 -74 -46 -81 -81 -53 l-29 22 25 40 c13 21 31 54 39 72 8 17 17
32 21 32 4 0 16 -13 28 -30z m-885 -10 c-5 -8 -11 -8 -17 -2 -6 6 -7 16 -3 22
5 8 11 8 17 2 6 -6 7 -16 3 -22z m-410 -31 c-10 -15 -25 -10 -19 6 4 8 10 12
15 9 5 -3 7 -10 4 -15z m1423 -66 c15 -9 29 -18 31 -20 5 -3 -72 -72 -95 -86
-7 -4 -19 -5 -27 -2 -11 5 -8 18 17 65 17 33 35 60 39 60 4 0 20 -8 35 -17z
m-1468 -32 c0 -5 -7 -11 -14 -14 -10 -4 -13 -1 -9 9 6 15 23 19 23 5z m1370
-110 c0 -5 -6 -14 -14 -20 -16 -13 -32 2 -21 19 8 12 35 13 35 1z m-116 -73
c-9 -18 -19 -28 -21 -21 -5 13 27 67 34 59 3 -2 -3 -19 -13 -38z m66 17 c0 -8
-81 -125 -87 -125 -3 0 5 17 18 38 12 20 29 49 38 64 14 25 31 37 31 23z
m-158 -190 c-9 -19 -17 -33 -19 -31 -6 5 19 66 27 66 4 0 0 -16 -8 -35z m-232
16 c0 -5 17 -16 38 -26 75 -34 112 -57 112 -70 0 -18 -20 -30 -29 -19 -13 19
-151 92 -157 83 -9 -15 -50 -10 -64 7 -12 13 -10 14 14 3 24 -11 29 -10 49 9
23 23 37 28 37 13z m90 -136 c18 -9 30 -24 30 -35 0 -29 -11 -25 -43 15 -31
39 -29 42 13 20z m60 -70 c-6 -15 -13 -25 -16 -23 -2 3 1 17 7 32 16 34 23 27
9 -9z m-933 13 c-2 -7 2 -26 11 -43 8 -16 18 -37 22 -45 4 -9 1 -54 -6 -100
-10 -64 -19 -89 -35 -103 -72 -58 -127 -5 -98 94 9 29 8 42 -5 67 -24 47 -21
71 12 78 48 10 52 13 52 33 0 12 8 21 23 24 12 2 24 5 25 6 2 0 2 -5 -1 -11z
m2269 -459 c-6 -78 -4 -95 14 -137 12 -26 28 -83 36 -127 29 -169 47 -303 41
-318 -11 -28 -261 -62 -539 -74 l-137 -5 -3 33 c-3 27 -15 -3 -61 -146 -179
-555 -205 -627 -214 -598 -7 19 -43 -7 -43 -30 0 -30 -19 -57 -40 -57 -26 0
-54 -17 -104 -63 -28 -26 -48 -36 -63 -34 -13 3 -29 -4 -39 -14 -17 -19 -44
-26 -44 -11 0 4 4 12 9 18 5 5 12 23 14 41 5 29 2 32 -40 48 -53 20 -51 33 3
13 29 -10 38 -10 41 0 3 6 10 12 17 12 8 0 11 10 8 30 -7 46 3 61 31 51 21 -8
26 -6 36 16 7 14 10 28 7 30 -3 3 0 16 5 30 8 21 6 24 -8 21 -10 -2 -19 -13
-21 -26 -4 -27 -4 -27 -77 7 -33 16 -63 27 -67 24 -15 -8 -8 -41 10 -48 15 -6
13 -9 -10 -21 -32 -17 -37 -44 -9 -44 10 0 24 -7 31 -15 15 -18 3 -19 -35 -5
-23 9 -26 7 -32 -20 -4 -21 -11 -30 -25 -30 -25 0 -126 -59 -133 -78 -3 -7 0
-22 6 -33 6 -11 8 -25 6 -32 -3 -7 -11 3 -18 21 -8 17 -18 32 -24 32 -16 0
-57 48 -50 60 3 5 0 10 -8 10 -7 0 -19 11 -26 24 -17 30 -55 48 -87 40 -40
-10 -27 -30 38 -58 l62 -27 -31 -20 c-18 -11 -35 -29 -38 -40 -8 -23 -18 -24
-35 -4 -7 8 -17 15 -23 15 -6 0 -7 -3 -4 -7 4 -3 -1 -12 -11 -20 -15 -13 -15
-13 5 -4 28 14 28 14 30 -9 1 -12 -9 -27 -22 -36 -22 -14 -26 -14 -40 -1 -8 8
-20 17 -26 19 -9 3 -7 17 5 50 22 57 18 100 -9 104 -11 2 -29 4 -40 6 -17 3
-20 -3 -21 -34 -1 -27 2 -35 12 -31 17 6 17 -1 2 -44 -15 -42 -29 -43 -22 0 4
27 3 29 -5 10 -13 -28 -16 -28 -43 -3 -24 22 -50 27 -42 8 2 -7 28 -30 56 -51
41 -30 57 -37 79 -32 29 7 33 4 150 -107 30 -29 48 -38 73 -38 33 0 34 0 46
-64 14 -76 6 -143 -18 -148 -22 -4 -62 14 -62 28 0 30 -35 42 -112 39 -70 -3
-80 -1 -103 21 -15 13 -30 22 -35 19 -5 -3 -11 -1 -15 5 -3 5 -14 10 -24 10
-31 0 -43 23 -25 48 8 12 14 27 13 34 -1 7 1 21 6 31 12 27 -2 62 -31 77 -14
8 -39 31 -55 51 -26 33 -27 39 -17 67 15 39 9 45 -31 31 -44 -16 -63 1 -35 32
18 21 18 22 1 16 -17 -6 -25 -2 -62 30 -22 21 -28 15 -22 -22 3 -21 2 -33 -4
-30 -5 4 -9 -1 -9 -9 0 -19 17 -30 23 -14 5 14 14 -5 41 -83 17 -48 87 -129
111 -129 8 0 15 -4 15 -10 0 -13 -16 -13 -57 2 -29 10 -35 10 -46 -6 -20 -27
-60 -5 -52 27 5 19 0 25 -29 35 -19 7 -38 22 -41 33 -4 11 -18 24 -31 29 -13
5 -24 16 -24 23 0 7 36 123 79 258 44 134 82 254 86 267 3 12 10 22 15 22 5 0
11 15 15 33 3 17 10 41 14 52 16 37 41 127 41 146 0 10 4 20 9 23 5 3 11 20
14 38 5 39 18 83 80 278 25 80 69 219 97 310 29 91 59 173 68 183 19 21 70 22
114 2 18 -8 76 -30 128 -50 52 -20 104 -40 115 -45 21 -10 363 -142 425 -165
35 -12 37 -12 78 25 24 22 42 48 42 59 0 12 4 21 10 21 5 0 16 13 24 28 16 30
-6 23 356 124 169 47 270 67 349 66 l74 0 -7 -89z m-2711 -79 c3 -5 -2 -10
-12 -10 -18 -1 -53 -22 -53 -33 0 -3 17 -4 38 -2 47 4 55 -1 42 -26 -7 -11 -7
-19 -1 -19 5 0 12 6 14 13 3 6 6 3 6 -9 1 -11 -5 -34 -13 -50 -61 -125 -45
-559 26 -702 39 -78 96 -132 139 -132 42 0 160 36 233 71 68 32 85 29 60 -9
-10 -15 -24 -39 -32 -54 -7 -16 -18 -28 -24 -28 -5 0 -8 -6 -5 -14 3 -8 -1
-39 -9 -70 -14 -53 -14 -152 -1 -186 26 -65 40 -167 25 -177 -8 -4 -12 11 -9
37 1 8 -9 2 -24 -15 -17 -20 -28 -26 -31 -17 -11 25 -22 1 -17 -38 l6 -40 -43
0 -43 0 21 23 c12 13 22 30 22 38 -1 12 -3 12 -13 -1 -12 -15 -51 -40 -62 -40
-3 0 -5 9 -5 20 0 23 -15 27 -23 6 -3 -8 -1 -17 6 -19 41 -15 -29 -17 -224 -7
-123 7 -309 10 -413 8 l-189 -3 -3 75 c-4 85 -6 97 -21 125 -6 11 -9 33 -6 48
4 18 0 34 -12 46 -15 17 -15 20 -1 23 14 3 14 6 1 32 -9 16 -13 31 -11 34 3 2
-2 18 -10 34 -8 16 -12 34 -7 40 4 7 10 32 13 56 5 33 4 45 -7 49 -11 4 -10 8
3 18 14 10 15 17 6 43 -7 19 -7 32 -1 32 5 0 9 14 9 31 0 16 -4 28 -9 25 -4
-3 -6 6 -3 20 2 14 7 21 11 16 3 -6 7 18 7 51 3 123 63 342 114 417 6 8 18 28
28 45 17 31 76 90 134 136 38 30 114 60 143 56 13 -1 19 3 17 12 -3 12 0 12
12 2 13 -11 22 -10 53 4 32 15 38 16 47 3 10 -13 15 -12 41 3 35 20 51 23 60
9z m49 -18 c2 -4 -4 -9 -15 -9 -10 -1 -19 2 -19 8 0 11 27 12 34 1z m1072
-1327 c10 -8 14 -15 8 -15 -5 0 -19 7 -30 15 -10 8 -14 15 -8 15 5 0 19 -7 30
-15z m-171 -35 c3 -5 2 -10 -4 -10 -5 0 -13 5 -16 10 -3 6 -2 10 4 10 5 0 13
-4 16 -10z m492 -69 c-4 -20 -2 -31 8 -35 8 -3 15 -1 15 4 0 6 4 10 8 10 4 0
8 -9 8 -19 0 -15 -7 -19 -28 -18 -34 2 -40 17 -27 57 14 38 23 39 16 1z m-281
-128 c-14 -14 -23 4 -13 27 l10 25 5 -23 c2 -13 1 -26 -2 -29z m152 29 c2 -7
-2 -10 -12 -6 -9 3 -16 11 -16 16 0 13 23 5 28 -10z m-92 -3 c3 -6 2 -15 -4
-21 -6 -6 -8 -16 -6 -23 8 -21 -16 -29 -34 -12 -14 15 -14 17 0 22 10 4 14 14
11 26 -6 21 21 28 33 8z m-397 -101 c-12 -23 -21 -24 -12 -1 5 12 2 15 -10 10
-9 -3 -17 -5 -17 -3 0 3 -3 11 -6 20 -5 13 -1 13 24 4 25 -10 29 -15 21 -30z
m-145 -53 c20 -9 41 -13 46 -10 19 12 10 -14 -15 -42 l-24 -28 -1 33 c0 29 -2
31 -19 20 -15 -9 -22 -8 -36 5 -15 16 -13 37 4 37 5 0 25 -7 45 -15z"/>
<path d="M3356 5944 c-3 -9 -6 -37 -6 -64 0 -54 -19 -68 -64 -45 -17 9 -26 10
-29 2 -2 -7 -50 -10 -149 -8 -129 2 -146 1 -152 -15 -4 -9 -5 -18 -4 -19 9 -9
418 -9 427 0 15 16 23 122 11 145 -13 24 -26 26 -34 4z"/>
<path d="M3640 5930 c0 -5 5 -10 10 -10 6 0 10 5 10 10 0 6 -4 10 -10 10 -5 0
-10 -4 -10 -10z"/>
<path d="M3472 5910 c-18 -29 -15 -32 13 -14 27 18 33 34 12 34 -7 0 -18 -9
-25 -20z"/>
<path d="M3245 5910 c3 -5 8 -10 11 -10 2 0 4 5 4 10 0 6 -5 10 -11 10 -5 0
-7 -4 -4 -10z"/>
<path d="M3888 5883 c7 -3 16 -2 19 1 4 3 -2 6 -13 5 -11 0 -14 -3 -6 -6z"/>
<path d="M3428 5862 c-24 -5 -24 -57 -1 -66 25 -10 38 9 27 41 -6 20 -14 28
-26 25z"/>
<path d="M3315 5630 c-3 -5 3 -10 15 -10 12 0 18 5 15 10 -3 6 -10 10 -15 10
-5 0 -12 -4 -15 -10z"/>
<path d="M3300 5600 c0 -5 5 -10 11 -10 5 0 7 5 4 10 -3 6 -8 10 -11 10 -2 0
-4 -4 -4 -10z"/>
<path d="M3701 5454 c0 -11 3 -14 6 -6 3 7 2 16 -1 19 -3 4 -6 -2 -5 -13z"/>
<path d="M1310 4860 c0 -5 5 -10 11 -10 5 0 7 5 4 10 -3 6 -8 10 -11 10 -2 0
-4 -4 -4 -10z"/>
<path d="M1336 4785 c4 -8 8 -15 10 -15 2 0 4 7 4 15 0 8 -4 15 -10 15 -5 0
-7 -7 -4 -15z"/>
<path d="M1366 4693 c-6 -14 -5 -15 5 -6 7 7 10 15 7 18 -3 3 -9 -2 -12 -12z"/>
<path d="M1400 4680 c8 -5 20 -10 25 -10 6 0 3 5 -5 10 -8 5 -19 10 -25 10 -5
0 -3 -5 5 -10z"/>
<path d="M1390 4650 c-9 -6 -10 -10 -3 -10 6 0 15 5 18 10 8 12 4 12 -15 0z"/>
<path d="M1398 4573 c7 -3 16 -2 19 1 4 3 -2 6 -13 5 -11 0 -14 -3 -6 -6z"/>
<path d="M1260 4490 c0 -5 5 -10 10 -10 6 0 10 5 10 10 0 6 -4 10 -10 10 -5 0
-10 -4 -10 -10z"/>
<path d="M4740 4524 c0 -8 5 -12 10 -9 6 4 8 11 5 16 -9 14 -15 11 -15 -7z"/>
<path d="M3997 3863 c-4 -3 -7 -15 -7 -27 0 -15 -3 -17 -12 -8 -22 22 -27 12
-12 -25 9 -20 13 -44 11 -55 -8 -29 10 -31 29 -3 9 14 24 25 33 25 12 0 10 5
-8 19 -28 21 -15 35 24 25 14 -3 25 -2 25 3 0 23 -68 61 -83 46z"/>
<path d="M3296 3463 c-8 -16 -35 -55 -61 -88 -55 -71 -99 -149 -70 -125 10 8
23 15 29 16 6 0 16 2 22 2 6 1 11 18 12 38 1 32 20 65 66 114 15 16 32 70 22
70 -3 0 -12 -12 -20 -27z"/>
<path d="M3723 2238 c-14 -17 -133 -380 -128 -389 4 -6 308 -134 334 -141 9
-2 23 24 41 80 16 45 24 82 19 82 -5 0 -9 10 -10 23 0 21 -1 21 -9 2 -6 -14
-9 -15 -10 -5 -1 27 -25 -23 -29 -62 -1 -4 -9 -4 -18 -1 -16 6 -16 5 -4 -10 9
-12 10 -17 2 -17 -7 0 -10 -4 -6 -9 3 -5 1 -12 -5 -16 -9 -6 -14 8 -11 28 1 4
-8 3 -19 -3 -13 -7 -20 -7 -20 0 0 5 5 10 11 10 5 0 7 5 4 10 -3 6 2 10 12 10
14 0 15 2 4 9 -8 5 -10 14 -5 22 4 8 9 21 9 29 4 44 6 50 21 50 9 0 18 -9 21
-20 3 -11 10 -17 16 -13 5 3 24 6 41 5 28 -1 29 1 13 12 -21 16 -13 44 15 48
15 2 26 21 43 71 l24 68 -32 14 c-18 7 -93 37 -167 67 -74 29 -138 54 -141 56
-3 1 -11 -3 -16 -10z m20 -78 c-3 -10 -12 -25 -21 -32 -14 -12 -14 -10 -2 12
7 14 13 26 12 28 -6 8 0 22 7 18 5 -3 7 -15 4 -26z m143 5 c11 -3 26 -16 32
-30 17 -37 15 -40 -9 -14 -16 19 -19 20 -15 6 9 -27 -12 -60 -32 -52 -14 5
-15 4 -4 -6 17 -18 15 -29 -5 -22 -27 9 -43 34 -43 64 0 15 -5 29 -12 31 -39
13 38 33 88 23z m69 -65 c-4 -12 -9 -19 -12 -17 -3 3 -2 15 2 27 4 12 9 19 12
17 3 -3 2 -15 -2 -27z m40 10 c4 -6 11 -8 16 -5 10 7 12 -6 3 -28 -3 -9 -14
-12 -30 -9 -17 3 -23 9 -20 19 3 8 6 19 6 24 0 12 17 12 25 -1z m-225 -54 c0
-14 -4 -28 -10 -31 -5 -3 -10 -17 -10 -31 0 -22 -3 -24 -27 -18 -30 8 -53 26
-53 43 0 15 16 14 40 -1 17 -11 22 -10 30 2 5 8 10 25 10 38 0 12 5 22 10 22
6 0 10 -11 10 -24z m190 -1 c10 0 14 -8 12 -25 -3 -24 -2 -24 12 -5 9 11 16
15 16 9 0 -5 -6 -19 -14 -30 -14 -18 -15 -18 -21 -2 -4 10 -11 15 -16 12 -5
-3 -9 0 -9 6 0 6 -4 8 -10 5 -11 -7 -13 6 -4 30 4 9 10 13 13 8 3 -4 13 -8 21
-8z m-88 -33 c11 -13 10 -15 -4 -9 -12 4 -18 2 -18 -7 0 -7 -9 -21 -20 -31
-25 -23 -25 -31 -1 -38 22 -5 34 1 49 28 6 11 12 15 12 9 0 -20 -34 -55 -57
-57 -19 -1 -20 -3 -7 -21 18 -26 18 -42 0 -27 -12 10 -13 9 -9 -7 6 -24 -13
-38 -32 -22 -9 7 -15 8 -20 0 -3 -5 2 -10 12 -10 15 0 16 -2 3 -10 -13 -8 -12
-10 3 -10 9 0 26 9 37 20 15 15 20 17 20 5 0 -8 -11 -22 -25 -31 -54 -35 -116
33 -77 85 10 15 29 27 41 29 20 3 21 5 8 20 -20 24 -26 56 -13 74 28 37 72 42
98 10z m39 -53 c-5 -13 -10 -19 -10 -12 -1 15 10 45 15 40 3 -2 0 -15 -5 -28z
m59 -18 c-9 -19 -50 -19 -50 -1 0 5 9 6 20 3 11 -3 20 0 20 6 0 6 5 11 10 11
7 0 7 -6 0 -19z m-250 -11 c0 -5 -4 -10 -10 -10 -5 0 -10 5 -10 10 0 6 5 10
10 10 6 0 10 -4 10 -10z m-5 -41 c-4 -12 -8 -28 -9 -35 -4 -30 -23 -36 -50
-19 -21 14 -24 20 -15 37 7 12 17 17 28 13 12 -3 21 0 25 10 9 24 28 18 21 -6z
m170 -139 c3 -6 -1 -7 -9 -4 -18 7 -21 14 -7 14 6 0 13 -4 16 -10z"/>
<path d="M4335 2009 c-4 -6 -5 -12 -2 -15 2 -3 7 2 10 11 7 17 1 20 -8 4z"/>
<path d="M4439 1986 c9 -11 9 -15 -1 -19 -10 -4 -10 -6 1 -6 8 -1 23 -9 35
-18 12 -12 9 -4 -8 20 -16 20 -31 37 -33 37 -3 0 0 -6 6 -14z"/>
<path d="M3997 1954 c-8 -8 1 -24 14 -24 5 0 9 7 9 15 0 15 -12 20 -23 9z"/>
<path d="M4330 1943 c0 -19 3 -21 29 -13 16 4 38 13 48 20 17 11 17 11 -2 5
-47 -17 -58 -17 -66 -4 -7 11 -9 9 -9 -8z"/>
<path d="M4514 1948 c-5 -8 -2 -9 9 -5 19 7 33 -10 28 -37 -1 -11 2 -16 8 -12
17 11 13 53 -5 60 -23 9 -32 7 -40 -6z"/>
<path d="M4580 1926 c0 -8 5 -18 10 -21 6 -3 10 3 10 14 0 12 -4 21 -10 21 -5
0 -10 -6 -10 -14z"/>
<path d="M4334 1863 c-4 -26 -10 -50 -14 -53 -4 -3 -2 -10 5 -17 10 -9 14 1
18 50 7 75 1 88 -9 20z"/>
<path d="M4680 1899 c0 -5 -4 -7 -10 -4 -5 3 -22 0 -36 -8 -17 -9 -23 -17 -15
-21 17 -11 13 -29 -5 -22 -8 3 -12 2 -9 -3 11 -19 -14 -21 -27 -3 -7 10 -20
21 -29 24 -13 5 -16 2 -11 -14 3 -13 -1 -24 -12 -30 -18 -10 -22 -48 -5 -48 6
0 8 9 4 20 -5 15 -2 20 13 20 16 0 19 5 14 23 l-5 22 22 -20 c12 -11 18 -21
13 -23 -6 -2 -6 -16 1 -37 6 -19 8 -38 4 -41 -10 -10 -27 6 -27 26 0 10 -3 21
-7 23 -5 3 -8 -8 -8 -23 0 -24 6 -31 39 -44 25 -10 35 -11 28 -4 -17 17 -15
35 4 42 12 4 15 2 10 -9 -3 -8 -1 -15 5 -15 6 0 9 8 7 18 -2 9 -10 16 -19 15
-9 -2 -16 6 -17 20 -1 15 15 37 56 74 38 35 51 52 40 53 -10 0 -18 -5 -18 -11z
m-10 -18 c0 -11 -31 -24 -39 -16 -3 3 1 10 9 15 19 12 30 12 30 1z"/>
<path d="M4713 1863 c-3 -10 -12 -25 -20 -34 -11 -13 -10 -17 12 -29 14 -7 28
-10 32 -5 5 4 2 10 -5 12 -10 4 -8 9 7 20 25 17 27 38 5 47 -22 9 -24 8 -31
-11z"/>
<path d="M3897 1849 c7 -7 15 -10 18 -7 3 3 -2 9 -12 12 -14 6 -15 5 -6 -5z"/>
<path d="M4452 1833 c5 -24 27 -28 25 -4 -1 12 -7 21 -15 21 -7 0 -12 -8 -10
-17z"/>
<path d="M3576 1784 c-9 -8 -16 -23 -15 -32 0 -13 3 -11 11 6 15 31 43 24 43
-11 -1 -30 10 -36 17 -9 11 40 -29 73 -56 46z"/>
<path d="M4666 1766 c2 -6 0 -33 -5 -59 -11 -63 3 -69 23 -10 21 60 20 70 -3
76 -12 3 -18 0 -15 -7z"/>
<path d="M3550 1710 c0 -5 6 -10 13 -10 6 0 23 -3 37 -6 l25 -5 -25 15 c-29
18 -50 20 -50 6z"/>
<path d="M4101 1706 c-8 -9 -11 -19 -7 -23 9 -9 29 13 24 27 -2 8 -8 7 -17 -4z"/>
<path d="M4535 1709 c-9 -13 -6 -15 33 -24 38 -8 43 7 7 23 -32 15 -32 15 -40
1z"/>
<path d="M4397 1680 c-3 -12 3 -26 16 -37 16 -13 18 -14 9 -2 -7 9 -10 23 -6
32 3 8 1 18 -4 21 -5 3 -12 -3 -15 -14z"/>
<path d="M3540 1675 c-17 -20 -8 -50 15 -50 14 0 21 8 23 26 4 31 -20 45 -38
24z m28 -22 c-4 -22 -22 -20 -26 1 -2 10 3 16 13 16 10 0 15 -7 13 -17z"/>
<path d="M4270 1682 c0 -8 35 -33 62 -44 13 -5 21 -1 29 15 9 18 9 20 -2 10
-19 -19 -47 -16 -61 7 -13 20 -28 27 -28 12z"/>
<path d="M4450 1674 c-14 -7 -20 -14 -13 -14 6 0 14 -8 16 -17 4 -15 5 -14 6
3 0 11 6 25 13 32 15 15 10 14 -22 -4z"/>
<path d="M4502 1649 c3 -37 2 -40 -17 -36 -18 3 -21 0 -17 -21 4 -20 6 -22 13
-9 5 8 23 18 39 22 17 4 38 17 46 30 9 13 23 26 32 28 9 2 -1 4 -23 4 -23 0
-33 -2 -22 -6 15 -6 16 -9 4 -25 -9 -12 -20 -17 -31 -13 -19 7 -22 43 -4 49 7
3 5 7 -6 11 -16 6 -18 2 -14 -34z"/>
<path d="M4005 1669 c-4 -6 -5 -12 -2 -15 2 -3 7 2 10 11 7 17 1 20 -8 4z"/>
<path d="M4594 1625 c-19 -14 -19 -15 4 -21 12 -3 22 -13 22 -21 0 -11 -4 -11
-21 -2 -32 17 -87 4 -115 -27 -38 -40 -28 -62 40 -90 l58 -24 32 22 c17 12 33
23 35 25 2 1 -2 9 -9 18 -11 13 -8 19 14 40 30 28 34 62 9 81 -24 18 -45 17
-69 -1z m1 -85 c8 0 15 -5 15 -11 0 -6 -9 -8 -22 -3 -26 8 -39 24 -31 37 3 5
10 2 15 -7 5 -9 16 -16 23 -16z"/>
<path d="M3514 1599 c-3 -6 2 -19 12 -30 20 -22 33 -17 14 6 -10 12 -10 15 4
15 9 0 16 4 16 8 0 12 -39 12 -46 1z"/>
<path d="M4143 1551 c-3 -12 -9 -21 -12 -21 -4 0 -8 -13 -8 -30 0 -24 5 -30
22 -30 11 0 26 -5 33 -12 9 -9 12 -7 12 9 0 11 -6 26 -14 32 -7 6 -11 22 -9
35 6 30 -16 46 -24 17z"/>
<path d="M3490 1555 c0 -3 7 -14 16 -23 15 -14 16 -14 13 3 -4 17 -29 35 -29
20z"/>
<path d="M4006 1544 c-3 -9 -4 -20 0 -25 3 -5 -2 -9 -10 -9 -9 0 -16 -7 -16
-15 0 -8 -6 -15 -12 -15 -9 0 -8 -3 2 -10 9 -6 17 -5 22 3 5 8 8 6 8 -6 0 -10
4 -16 9 -13 8 5 14 106 6 106 -1 0 -6 -7 -9 -16z"/>
<path d="M4040 1543 c0 -10 4 -24 9 -32 6 -9 5 -21 -2 -33 -9 -14 -9 -23 1
-39 11 -18 11 -20 0 -17 -7 3 -18 -5 -23 -16 -9 -17 -7 -24 8 -34 16 -12 21
-11 38 4 26 23 25 60 -2 67 -28 7 -15 26 14 20 21 -4 21 -4 4 10 -15 13 -16
15 -2 21 21 8 19 43 -4 56 -28 15 -41 12 -41 -7z m40 -19 c0 -8 -4 -12 -10 -9
-5 3 -10 10 -10 16 0 5 5 9 10 9 6 0 10 -7 10 -16z"/>
<path d="M3481 1514 c0 -11 3 -14 6 -6 3 7 2 16 -1 19 -3 4 -6 -2 -5 -13z"/>
<path d="M3696 1457 c-14 -10 -17 -22 -13 -52 4 -31 1 -42 -16 -56 -12 -10
-28 -18 -35 -19 -7 0 -15 -7 -18 -15 -4 -8 -11 -12 -17 -8 -6 3 -7 1 -3 -5 4
-6 13 -9 21 -5 9 3 15 -1 15 -10 0 -9 15 -30 33 -48 17 -18 31 -37 29 -42 -2
-6 3 -14 10 -18 19 -13 28 -11 22 5 -4 10 5 13 34 13 51 0 87 25 107 76 29 73
4 142 -65 177 -45 23 -79 25 -104 7z m56 -37 c-3 -11 0 -11 12 -1 13 11 17 10
22 -3 3 -9 15 -16 26 -16 17 0 19 -4 13 -27 -10 -41 -24 -51 -39 -30 -7 9 -22
17 -34 17 -22 0 -29 -12 -46 -72 -5 -16 -14 -28 -22 -28 -18 0 -18 -6 11 78
14 39 25 79 25 88 0 9 7 14 18 12 9 -2 16 -10 14 -18z m30 -99 c27 -26 18 -76
-12 -68 -11 3 -23 1 -26 -4 -3 -5 -12 -9 -21 -9 -16 0 -14 19 7 75 11 30 24
31 52 6z"/>
<path d="M4127 1453 c-4 -3 -7 -16 -7 -27 1 -19 1 -20 11 -3 13 22 29 13 29
-16 0 -16 3 -18 11 -10 9 9 8 18 -5 37 -17 26 -27 31 -39 19z"/>
<path d="M3451 1434 c0 -11 3 -14 6 -6 3 7 2 16 -1 19 -3 4 -6 -2 -5 -13z"/>
<path d="M4550 1421 c0 -5 7 -12 16 -15 24 -9 27 -7 10 9 -17 17 -26 19 -26 6z"/>
<path d="M4112 1385 c4 -4 0 -14 -10 -21 -16 -12 -16 -13 4 -14 11 0 25 -5 32
-12 9 -9 12 -8 12 4 0 9 6 18 13 21 17 6 7 14 -28 23 -17 4 -27 3 -23 -1z"/>
<path d="M3421 1364 c0 -11 3 -14 6 -6 3 7 2 16 -1 19 -3 4 -6 -2 -5 -13z"/>
<path d="M3465 1370 c3 -5 11 -10 16 -10 6 0 7 5 4 10 -3 6 -11 10 -16 10 -6
0 -7 -4 -4 -10z"/>
<path d="M3460 1340 c0 -7 24 -20 36 -20 13 0 1 19 -16 23 -11 3 -20 2 -20 -3z"/>
<path d="M3454 1305 c2 -7 -2 -16 -11 -19 -12 -5 -13 -9 -4 -20 9 -10 8 -15
-4 -20 -8 -3 -15 -10 -15 -17 0 -6 7 -9 15 -5 8 3 19 -2 24 -12 5 -9 13 -13
17 -9 5 4 3 17 -4 27 -10 16 -9 18 5 13 12 -5 15 -2 10 9 -3 10 1 19 10 22 12
5 13 9 4 20 -16 20 -54 28 -47 11z"/>
<path d="M4314 1289 c-7 -12 12 -29 34 -29 23 0 30 -42 14 -86 -16 -44 -12
-74 12 -74 9 0 21 27 35 77 11 42 19 78 17 80 -2 2 -12 5 -24 8 -11 2 -34 11
-50 19 -22 11 -33 13 -38 5z"/>
<path d="M4225 1280 c-4 -6 -10 -8 -14 -6 -4 3 -5 -8 -3 -25 2 -16 0 -29 -6
-29 -6 0 -8 9 -5 20 4 16 0 20 -19 20 -22 0 -29 -9 -53 -75 -15 -42 -25 -78
-22 -81 9 -9 77 49 77 66 0 10 3 11 11 3 7 -7 7 -16 0 -29 -16 -31 -31 -86
-25 -95 8 -13 32 -11 37 4 3 7 6 4 6 -7 1 -13 6 -17 21 -13 11 3 18 1 15 -3
-3 -5 3 -13 13 -19 15 -8 20 -3 36 42 11 30 14 53 9 54 -6 2 -18 10 -28 17
-14 10 -15 15 -5 21 8 5 11 4 6 -3 -3 -6 3 -14 15 -17 11 -4 21 -5 22 -3 1 1
7 13 14 24 20 37 26 89 11 101 -25 20 -58 22 -69 5 -9 -15 -10 -15 -4 2 8 27
-26 49 -40 26z m29 -65 c-4 -8 -8 -15 -10 -15 -2 0 -4 7 -4 15 0 8 4 15 10 15
5 0 7 -7 4 -15z m54 -22 c-2 -9 -8 -18 -15 -20 -7 -3 -9 3 -6 16 6 25 26 28
21 4z m-44 -128 c-4 -8 -8 -15 -10 -15 -2 0 -4 7 -4 15 0 8 4 15 10 15 5 0 7
-7 4 -15z"/>
<path d="M4505 1269 c-4 -5 -1 -8 7 -7 7 2 12 -3 10 -10 -1 -8 2 -11 8 -7 5 3
10 10 10 15 0 12 -29 20 -35 9z"/>
<path d="M3520 1230 c0 -11 5 -20 10 -20 6 0 10 9 10 20 0 11 -4 20 -10 20 -5
0 -10 -9 -10 -20z"/>
<path d="M3617 1213 c-4 -3 -7 -11 -7 -17 0 -6 5 -5 12 2 6 6 9 14 7 17 -3 3
-9 2 -12 -2z"/>
<path d="M4496 1209 c3 -6 1 -15 -6 -19 -8 -5 -7 -9 4 -13 10 -4 16 -1 16 8 0
8 5 15 11 15 6 0 8 -7 4 -17 -5 -15 -4 -16 7 -5 11 11 10 16 -6 28 -24 17 -40
18 -30 3z"/>
<path d="M3535 1136 c-3 -9 -7 -23 -10 -31 -2 -8 0 -15 5 -15 11 0 25 48 16
57 -3 3 -8 -2 -11 -11z"/>
<path d="M3679 1137 c13 -16 11 -22 -19 -52 -20 -21 -30 -40 -27 -49 8 -20 47
-21 47 -1 0 8 7 15 16 15 12 0 15 -6 10 -22 -3 -13 -6 -29 -6 -37 0 -8 -7 -11
-18 -9 -11 3 -23 -2 -30 -13 -19 -30 -14 -42 10 -25 12 9 30 16 39 16 9 0 19
7 23 15 3 8 10 15 15 15 6 0 8 -7 5 -15 -4 -8 -1 -15 6 -15 6 0 14 9 17 20 6
21 28 27 38 10 9 -15 25 -12 25 5 0 8 4 15 9 15 11 0 21 -25 21 -55 0 -12 10
-30 23 -39 18 -13 18 -14 3 -9 -19 6 -19 6 0 -20 10 -14 22 -27 27 -27 16 0
28 57 22 103 -5 45 -4 48 13 43 14 -5 21 -1 25 14 4 16 -3 25 -33 40 -22 11
-44 20 -50 20 -6 0 -25 10 -41 23 -23 16 -45 22 -89 23 -34 0 -67 7 -77 15
-17 13 -17 13 -4 -4z"/>
<path d="M3365 1129 c-4 -6 -4 -13 -1 -16 3 -4 6 -1 6 5 0 20 20 13 30 -10 9
-23 9 -23 9 -2 1 12 -6 25 -15 28 -21 8 -22 8 -29 -5z"/>
<path d="M3344 1075 c-8 -21 4 -35 29 -34 l22 0 -22 9 c-29 12 -31 34 -2 25
15 -5 19 -4 15 4 -10 16 -36 14 -42 -4z"/>
<path d="M3332 1028 c-18 -18 -14 -36 9 -43 11 -4 23 -5 26 -2 2 3 -5 8 -16
12 -30 9 -26 28 4 23 30 -6 32 -2 7 11 -13 7 -23 6 -30 -1z"/>
<path d="M3307 979 c7 -7 15 -10 18 -7 3 3 -2 9 -12 12 -14 6 -15 5 -6 -5z"/>
<path d="M4426 945 c-9 -26 -7 -32 5 -12 6 10 9 21 6 23 -2 3 -7 -2 -11 -11z"/>
<path d="M3730 821 c0 -10 30 -24 37 -17 3 2 -5 9 -16 16 -12 6 -21 7 -21 1z"/>
<path d="M2530 2180 c0 -5 4 -10 9 -10 6 0 13 5 16 10 3 6 -1 10 -9 10 -9 0
-16 -4 -16 -10z"/>
<path d="M2648 2153 c-22 -5 -23 -19 -3 -27 9 -3 19 3 25 14 11 20 9 21 -22
13z"/>
<path d="M7691 7898 c27 -57 56 -114 63 -128 23 -44 103 -313 158 -535 11 -44
21 -109 22 -144 l1 -64 -70 -22 c-95 -29 -163 -66 -254 -135 -42 -31 -90 -65
-108 -74 -101 -51 -248 -221 -342 -396 -98 -184 -203 -452 -217 -557 -3 -29
-11 -53 -16 -53 -5 0 -6 -10 -3 -21 5 -16 4 -19 -5 -14 -10 6 -11 1 -6 -18 3
-14 1 -29 -4 -32 -6 -4 -10 -23 -9 -43 1 -20 -4 -50 -11 -67 -13 -32 -16 -189
-5 -225 5 -15 3 -20 -3 -16 -7 4 -8 -4 -1 -26 5 -21 5 -34 -1 -38 -7 -4 -6
-17 1 -38 8 -25 8 -36 -1 -47 -8 -10 -9 -15 -2 -15 6 0 11 -8 12 -17 4 -77 -3
-174 -15 -193 -12 -20 -14 -63 -2 -77 6 -9 6 -13 -2 -13 -7 0 -10 -4 -6 -10 3
-6 15 -6 30 0 18 7 26 6 33 -6 7 -12 10 -11 18 8 7 15 8 62 2 133 -5 61 -7
225 -6 365 l3 255 42 87 c57 115 149 209 303 310 213 140 372 200 603 229 l97
12 0 864 0 863 -174 0 -175 0 50 -102z"/>
<path d="M5500 7661 c-46 -15 -105 -49 -131 -78 -95 -104 -89 -172 8 -83 108
101 227 110 353 29 68 -44 86 -48 95 -19 14 46 -59 121 -143 146 -48 15 -141
17 -182 5z"/>
<path d="M5361 6901 c-70 -25 -97 -45 -153 -119 -51 -67 -78 -131 -114 -272
-25 -97 -64 -391 -64 -490 -1 -30 -6 -85 -13 -121 -15 -77 -13 -89 18 -89 44
0 69 100 95 375 43 444 141 625 339 625 58 0 120 -30 169 -85 96 -103 165
-321 197 -620 19 -179 24 -195 63 -195 50 0 62 25 62 128 0 166 -35 356 -97
522 -58 157 -152 278 -255 331 -61 31 -174 36 -247 10z"/>
<path d="M2187 5274 c-4 -4 -17 -8 -30 -9 -18 -2 -22 -7 -20 -36 3 -61 67 -89
111 -49 28 27 28 41 -3 70 -16 15 -25 19 -25 10 0 -10 -4 -9 -13 4 -7 9 -16
14 -20 10z"/>
<path d="M6670 5249 c0 -5 5 -7 10 -4 6 3 10 8 10 11 0 2 -4 4 -10 4 -5 0 -10
-5 -10 -11z"/>
<path d="M6690 5225 c-1 -11 -4 -14 -7 -7 -11 27 -20 0 -15 -46 3 -36 0 -53
-12 -64 -21 -21 -20 -29 1 -21 13 5 15 2 9 -18 -10 -33 -10 -40 -2 -68 6 -16
5 -21 -3 -17 -6 4 -11 0 -11 -8 0 -9 -6 -16 -13 -16 -15 0 -41 -65 -32 -80 3
-6 -1 -13 -9 -16 -16 -6 -22 -45 -9 -57 3 -4 13 -1 21 6 13 10 14 9 10 -3 -3
-8 -15 -14 -27 -13 -14 2 -24 -5 -30 -20 -5 -12 -25 -37 -45 -55 -20 -19 -34
-37 -31 -42 10 -17 44 3 98 60 41 42 63 76 82 126 15 38 31 78 37 89 18 33 20
154 4 225 -8 36 -15 56 -16 45z"/>
<path d="M4040 5216 c0 -9 5 -16 10 -16 6 0 10 4 10 9 0 6 -4 13 -10 16 -5 3
-10 -1 -10 -9z"/>
<path d="M120 5189 c0 -5 5 -7 10 -4 6 3 10 8 10 11 0 2 -4 4 -10 4 -5 0 -10
-5 -10 -11z"/>
<path d="M180 5150 c0 -5 5 -10 10 -10 6 0 10 5 10 10 0 6 -4 10 -10 10 -5 0
-10 -4 -10 -10z"/>
<path d="M150 5110 l-35 -7 32 -2 c17 0 35 4 38 9 3 6 5 9 3 9 -2 -1 -19 -5
-38 -9z"/>
<path d="M215 5110 c-16 -7 -17 -9 -3 -9 9 -1 20 4 23 9 7 11 7 11 -20 0z"/>
<path d="M1158 5063 c7 -3 16 -2 19 1 4 3 -2 6 -13 5 -11 0 -14 -3 -6 -6z"/>
<path d="M3973 4720 c-25 -10 -26 -11 -17 -34 10 -26 31 -18 36 14 3 17 4 30
4 29 -1 0 -11 -4 -23 -9z"/>
<path d="M6937 4329 c-3 -13 -1 -19 6 -16 15 5 22 37 9 37 -5 0 -12 -9 -15
-21z"/>
<path d="M5406 4001 c-4 -7 -5 -15 -2 -18 9 -9 19 4 14 18 -4 11 -6 11 -12 0z"/>
<path d="M7434 798 c78 -148 100 -185 125 -218 15 -19 49 -67 74 -105 26 -39
70 -96 98 -128 85 -95 125 -172 159 -304 11 -43 11 -43 55 -43 l45 0 0 335 0
335 -72 0 c-86 0 -146 15 -248 62 -41 20 -108 48 -147 63 -40 15 -80 36 -89
47 -33 35 -33 17 0 -44z"/>
</g>
</svg>
